<svg xmlns="http://www.w3.org/2000/svg" xmlns:xlink="http://www.w3.org/1999/xlink" viewBox="0 0 220 208"><defs><style>.a{fill:none;}.b{fill:#00b964;}.c{fill:#78dda3;}.d{fill:#fff;}.e{clip-path:url(#a);}</style><clipPath id="a"><circle class="a" cx="109.8" cy="108.19" r="97.24"/></clipPath></defs><title>HelpCenter_Icons_expanded</title><circle class="b" cx="110" cy="108.67" r="97.56"/><path class="c" d="M176.11,114a17.42,17.42,0,0,1-17.43-17.81l-.16-51.53a22.63,22.63,0,0,1-4-2.57A22.07,22.07,0,0,1,157,5.92a1.83,1.83,0,0,1,1.8-.07,1.87,1.87,0,0,1,1,1.48l1.46,13.59,13.18-1.41L173,5.91a1.87,1.87,0,0,1,2.47-2,22.12,22.12,0,0,1,10.14,34.84,22.58,22.58,0,0,1-3.36,3.34l10.9,51A17.42,17.42,0,0,1,176.94,114ZM156.43,10.92a18.61,18.61,0,0,0-2.36,2.42,18.4,18.4,0,0,0,2.77,25.85,18.49,18.49,0,0,0,4.3,2.57,1.86,1.86,0,0,1,1.13,1.72l.17,52.77A13.66,13.66,0,0,0,186.9,105a13.68,13.68,0,0,0,2.59-11.13L178.33,41.73a1.89,1.89,0,0,1,.75-1.92,18.59,18.59,0,0,0,3.61-3.4,18.37,18.37,0,0,0-2.77-25.84,18.48,18.48,0,0,0-2.83-1.87l1.16,10.83a3.31,3.31,0,0,1-2.95,3.66l-14,1.51a3.33,3.33,0,0,1-3.66-2.95Zm18.09,9h0Zm1.28,80.35A6.22,6.22,0,1,1,180.65,98h0a6.18,6.18,0,0,1-4.17,2.28Zm0-8.68A2.46,2.46,0,0,0,174.26,96a2.34,2.34,0,0,0,1.82.53,2.44,2.44,0,0,0,1.65-.9h0a2.46,2.46,0,0,0-1.92-4Z"/><path class="d" d="M140.13,69.87a34.13,34.13,0,0,0-68.26,0c0,18.26,14.6,38.68,34.13,38.68S140.13,88.13,140.13,69.87Z"/><path class="d" d="M75.94,172.26h89.22a2.28,2.28,0,0,0,2.28-2.27V146.25A15.91,15.91,0,0,0,158,131.7c-9.76-4.33-26.71-9.5-52-9.5a153.45,153.45,0,0,0-31.67,3.09,31.8,31.8,0,0,1,1.61,47Z"/><path class="c" d="M41.67,158.48a11.25,11.25,0,1,1,11.25-11.25A11.26,11.26,0,0,1,41.67,158.48Zm0-18.74a7.5,7.5,0,1,0,7.49,7.49A7.5,7.5,0,0,0,41.67,139.74Z"/><path class="c" d="M41.68,184.31a7.89,7.89,0,0,1-.84-.05,7.17,7.17,0,0,1-6.32-6.32L34,173.78a27.38,27.38,0,0,1-5.71-2.36L25,174a7.18,7.18,0,0,1-10.08-10.08l2.59-3.33a27,27,0,0,1-2.37-5.7l-4.18-.53a7.18,7.18,0,0,1,0-14.27l.9-.1h0l3.27-.41a26.89,26.89,0,0,1,2.37-5.71l-2.59-3.33A7.18,7.18,0,0,1,25,120.46l3.33,2.59A27,27,0,0,1,34,120.68l.52-4.17a7.12,7.12,0,0,1,2.67-4.79,7.25,7.25,0,0,1,5.29-1.51,7.14,7.14,0,0,1,6.31,6.31l.52,4.16A27.42,27.42,0,0,1,55,123.05l3.31-2.59a7.06,7.06,0,0,1,5.3-1.46,7.18,7.18,0,0,1,4.79,11.55l-2.59,3.32a26.89,26.89,0,0,1,2.37,5.71l4.18.52a7.19,7.19,0,0,1,0,14.28l-4.16.51a26.89,26.89,0,0,1-2.37,5.71l2.59,3.32A7.19,7.19,0,0,1,58.35,174L55,171.42a27.38,27.38,0,0,1-5.71,2.36L48.8,178a7.19,7.19,0,0,1-7.12,6.35ZM28,166.87l1.11.69a23.89,23.89,0,0,0,7,2.9l1.27.3.84,6.74a3.42,3.42,0,0,0,3,3,3.32,3.32,0,0,0,2.52-.72,3.36,3.36,0,0,0,1.28-2.29l.84-6.75,1.27-.3a23.84,23.84,0,0,0,7-2.9l1.11-.69L60.66,171a3.44,3.44,0,0,0,4.22,0,3.38,3.38,0,0,0,1.29-2.28,3.34,3.34,0,0,0-.7-2.53l-4.17-5.36.69-1.11a23.76,23.76,0,0,0,2.91-7l.29-1.27,6.74-.84a3.43,3.43,0,0,0,0-6.82L65.19,143l-.29-1.27a23.81,23.81,0,0,0-2.91-7l-.69-1.11,4.17-5.36a3.42,3.42,0,0,0,0-4.22,3.38,3.38,0,0,0-2.28-1.29,3.32,3.32,0,0,0-2.53.7l-5.35,4.17-1.11-.69a23.59,23.59,0,0,0-7-2.91l-1.27-.3L45.08,117a3.42,3.42,0,0,0-3-3,3.32,3.32,0,0,0-2.53.72,3.43,3.43,0,0,0-1.27,2.3l-.85,6.74-1.26.3a23.59,23.59,0,0,0-7,2.91L28,127.6l-5.36-4.17a3.44,3.44,0,0,0-4.23,0,3.38,3.38,0,0,0-1.29,2.28,3.45,3.45,0,0,0,.7,2.53L22,133.6l-.69,1.11a23.81,23.81,0,0,0-2.91,7l-.3,1.27-7.09.88a3.43,3.43,0,0,0,.32,6.76l6.76.85.3,1.27a24,24,0,0,0,2.9,7l.69,1.1-4.17,5.37A3.43,3.43,0,0,0,22.66,171Z"/><path class="c" d="M116.81,199.23a8.29,8.29,0,1,1,8.29-8.29A8.3,8.3,0,0,1,116.81,199.23Zm0-12.35a4.06,4.06,0,1,0,4.06,4.06A4.06,4.06,0,0,0,116.81,186.88Z"/><circle class="c" cx="147.05" cy="110.14" r="3.13"/><circle class="c" cx="26.84" cy="100.36" r="3.13"/><circle class="c" cx="154.56" cy="182.65" r="3.13"/><path class="c" d="M191.24,138.62l4-4a2.11,2.11,0,1,0-3-3l-4,4-4-4a2.11,2.11,0,1,0-3,3l4,4-4,4a2.09,2.09,0,0,0,0,3,2.1,2.1,0,0,0,3,0l4-4,4,4a2.06,2.06,0,0,0,1.49.62,2.09,2.09,0,0,0,1.5-.62,2.11,2.11,0,0,0,0-3Z"/><g class="e"><path class="c" d="M114,25.9a2.11,2.11,0,0,1-2.11-2.12V7.23a2.11,2.11,0,1,1,4.22,0V23.78A2.11,2.11,0,0,1,114,25.9Z"/><path class="c" d="M114,.69a2.11,2.11,0,0,1-2.11-2.11v-18.9A2.11,2.11,0,0,1,114-22.43a2.11,2.11,0,0,1,2.11,2.11v18.9A2.11,2.11,0,0,1,114,.69Z"/><path class="c" d="M82.86,35.23A2.11,2.11,0,0,1,81,34.17L56.57-8.19a2.1,2.1,0,0,1,.78-2.88,2.1,2.1,0,0,1,2.88.77L84.69,32.06a2.13,2.13,0,0,1-1.83,3.17Z"/><path class="c" d="M56.07,87.16H3.75a2.12,2.12,0,1,1,0-4.23H56.07a2.12,2.12,0,0,1,0,4.23Z"/><path class="c" d="M62,59.15a2.15,2.15,0,0,1-1-.28L49,52a2.11,2.11,0,1,1,2.11-3.66l12,6.9a2.13,2.13,0,0,1,.77,2.89A2.1,2.1,0,0,1,62,59.15Z"/><path class="c" d="M41.53,47.32A2.16,2.16,0,0,1,40.47,47L16.18,33a2.11,2.11,0,1,1,2.11-3.66l24.3,14a2.11,2.11,0,0,1-1.06,3.94Z"/></g><path class="c" d="M105.49,97.35a15.55,15.55,0,0,1-8.42-3,2.11,2.11,0,0,1,2.34-3.52,11.66,11.66,0,0,0,6.08,2.29,11.66,11.66,0,0,0,6.09-2.29,2.11,2.11,0,1,1,2.34,3.52A15.61,15.61,0,0,1,105.49,97.35Z"/></svg>