<svg xmlns="http://www.w3.org/2000/svg" viewBox="0 0 220 208"><defs><style>.a{fill:#00b964;}.b{fill:#78dda3;}.c{fill:#fff;}</style></defs><title>HelpCenter_Icons_expanded</title><circle class="a" cx="110" cy="108.67" r="97.56"/><path class="b" d="M121.49,188.87a8.07,8.07,0,1,1,8.08-8.07A8.08,8.08,0,0,1,121.49,188.87Zm0-12a4,4,0,1,0,4,4A4,4,0,0,0,121.49,176.85Z"/><circle class="b" cx="186.76" cy="70.43" r="3.05"/><circle class="b" cx="91.56" cy="162.94" r="3.05"/><circle class="b" cx="147.51" cy="167" r="3.05"/><circle class="b" cx="133.59" cy="28.7" r="3.05"/><circle class="b" cx="83.04" cy="34.81" r="3.05"/><path class="b" d="M161.56,47.39l2.34-5a2.06,2.06,0,1,0-3.72-1.75l-2.34,5-5-2.34A2.05,2.05,0,1,0,151.1,47l5,2.34-2.33,5a2.05,2.05,0,0,0,2.56,2.8,2.07,2.07,0,0,0,1.16-1.06l2.34-5,5,2.34a2.06,2.06,0,0,0,1.75-3.73Z"/><path class="c" d="M111.64,121.59c2.85,16.56,20.22,29.33,41.15,29.33a52.68,52.68,0,0,0,11.12-1.28L184.13,158a1.38,1.38,0,0,0,1.91-1.36l-1-18.22a30.86,30.86,0,0,0,9.34-21.67c0-18.77-18.26-33.47-41.57-33.47"/><path class="b" d="M184.65,160a3.27,3.27,0,0,1-1.22-.24l-19.69-8.17a54.44,54.44,0,0,1-10.93,1.2c-21.48,0-39.94-13.26-43-30.85a1.83,1.83,0,1,1,3.6-.62c2.73,15.86,19.65,27.81,39.35,27.81a51,51,0,0,0,10.72-1.23,1.88,1.88,0,0,1,1.1.09l19.61,8.14-1-17.54a1.8,1.8,0,0,1,.55-1.41,28.8,28.8,0,0,0,8.79-20.38c0-17.72-17.46-31.62-39.74-31.62a1.83,1.83,0,1,1,0-3.65c24.33,0,43.39,15.5,43.39,35.29a32.42,32.42,0,0,1-9.29,22.38l1,17.4a3.27,3.27,0,0,1-.24,1.42A3.23,3.23,0,0,1,184.65,160Z"/><path class="b" d="M155.31,128.34a1.83,1.83,0,0,1-1.83-1.83V119a3.5,3.5,0,0,1,3.49-3.49,4.83,4.83,0,1,0-4.43-6.75,1.83,1.83,0,0,1-3.35-1.47A8.48,8.48,0,1,1,157,119.19l.17,7.32A1.83,1.83,0,0,1,155.31,128.34Z"/><path class="b" d="M155.34,137.05a1.82,1.82,0,0,1-1.83-1.83,1.9,1.9,0,0,1,1.83-1.91,1.76,1.76,0,0,1,1.83,1.75v.16A1.82,1.82,0,0,1,155.34,137.05Z"/><path class="c" d="M67.66,110.78l-1.18,20.93a1.71,1.71,0,0,0,.12.71,1.59,1.59,0,0,0,2.08.85l23.23-9.63a60.43,60.43,0,0,0,12.78,1.47c26.33,0,47.75-17.6,47.75-39.22s-21-38.46-47.75-38.46S56.93,64.32,56.93,85.89A35.47,35.47,0,0,0,67.66,110.78Z"/><path class="b" d="M68.07,135.23a3.47,3.47,0,0,1-1.3-.26,3.41,3.41,0,0,1-1.86-1.85,3.63,3.63,0,0,1-.26-1.5l1.14-20.12A37,37,0,0,1,55.1,85.91c0-22.61,21.78-40.31,49.59-40.31s49.58,17.7,49.58,40.29S132,126.94,104.69,126.94a62.93,62.93,0,0,1-12.61-1.39L69.38,135A3.3,3.3,0,0,1,68.07,135.23Zm.24-3.41Zm36.38-82.56c-25.76,0-45.93,16.09-45.93,36.63a33.34,33.34,0,0,0,10.18,23.58,1.82,1.82,0,0,1,.55,1.41l-1.16,20.56L91.21,122a1.8,1.8,0,0,1,1.1-.09,58.85,58.85,0,0,0,12.39,1.42c25.31,0,45.92-16.77,45.92-37.39S130.44,49.26,104.69,49.26Z"/><path class="b" d="M104.18,98.78a3.29,3.29,0,0,0,3.3-3.29V61.4a3.3,3.3,0,1,0-6.59,0V95.49A3.29,3.29,0,0,0,104.18,98.78Z"/><path class="b" d="M104.18,103.6a3.63,3.63,0,1,0,3.63,3.63A3.63,3.63,0,0,0,104.18,103.6Z"/><path class="b" d="M58.92,58.63a2.05,2.05,0,0,1-2.88.43L43.1,49.44a2.06,2.06,0,1,1,2.46-3.3L58.5,55.75A2.06,2.06,0,0,1,58.92,58.63Z"/><path class="b" d="M39.22,44a2.07,2.07,0,0,1-2.88.43l-14.77-11A2.06,2.06,0,1,1,24,30.14l14.76,11A2.05,2.05,0,0,1,39.22,44Z"/><path class="b" d="M48.13,88.38a2,2,0,0,1-1.89.82l-43.16-5a2.06,2.06,0,1,1,.48-4.09l43.16,5a2.07,2.07,0,0,1,1.8,2.29A2,2,0,0,1,48.13,88.38Z"/><path class="b" d="M69.68,144.74,42.77,180.38a2.06,2.06,0,1,1-3.3-2.45l26.9-35.65a2.06,2.06,0,0,1,3.31,2.46Z"/><path class="b" d="M54.74,118.55a2,2,0,0,1-.83.66l-12.34,5.33a2.05,2.05,0,1,1-1.63-3.77l12.34-5.34a2.06,2.06,0,0,1,2.46,3.12Z"/><path class="b" d="M33.58,127.71a2.09,2.09,0,0,1-.83.66L7.67,139.22A2.06,2.06,0,0,1,6,135.44L31.11,124.6a2.05,2.05,0,0,1,2.47,3.11Z"/></svg>