<svg xmlns="http://www.w3.org/2000/svg" viewBox="0 0 220 208"><defs><style>.a{fill:#00b964;}.b{fill:#78dda3;}.c{fill:#fff;}</style></defs><title>HelpCenter_Icons_expanded</title><circle class="a" cx="110" cy="108.67" r="97.56"/><path class="b" d="M94.39,184H88.63v-5.75a2.15,2.15,0,1,0-4.3,0V184H78.58a2.15,2.15,0,0,0,0,4.3h5.75v5.75a2.15,2.15,0,1,0,4.3,0v-5.75h5.76a2.15,2.15,0,0,0,0-4.3Z"/><path class="c" d="M137,126.26H174.5c11.16,0,17.2,5.6,20.23,10a4.76,4.76,0,0,1-2.36,7.11L116.81,171a6.29,6.29,0,0,1-.74.22,35.68,35.68,0,0,1-18.65-.78l-38.37-16.2a4.78,4.78,0,0,1-2.91-4.4V108.13a4.76,4.76,0,0,1,4.77-4.77h6.68c11.67,0,22.46,4.83,29.13,13.32a4.88,4.88,0,0,0,3.83,1.95H121c8.94,0,18.34,7.66,21.66,16.44a4.79,4.79,0,0,1-4.49,6.47H90.5"/><path class="b" d="M56.34,160.65H33.43a1.91,1.91,0,0,1-1.91-1.91V97.65a1.9,1.9,0,0,1,1.91-1.91H56.34a1.9,1.9,0,0,1,1.9,1.91v61.09A1.91,1.91,0,0,1,56.34,160.65Zm-21-3.82H54.43V99.56H35.34Z"/><circle class="c" cx="153.42" cy="84.09" r="3.93"/><path class="c" d="M153.42,31.7A15.73,15.73,0,0,0,139,41.12a2.62,2.62,0,0,0,4.8,2.1,10.48,10.48,0,1,1,9.61,14.67,2.62,2.62,0,0,0-2.62,2.62V72.3a2.62,2.62,0,1,0,5.23,0V62.91a15.71,15.71,0,0,0-2.61-31.21Z"/><path class="b" d="M113.18,114.09a3.68,3.68,0,0,1-3.4-2.27,3.43,3.43,0,0,1-.28-1.62l1.27-22.47A41,41,0,0,1,98.86,59.28c0-25.11,24.2-44.76,55.1-44.76s55.11,19.65,55.11,44.74S184.34,104.85,154,104.85a69.27,69.27,0,0,1-14.06-1.54l-25.31,10.5A3.69,3.69,0,0,1,113.18,114.09ZM154,18.34c-28.76,0-51.29,18-51.29,40.92a37.28,37.28,0,0,0,11.38,26.35,1.88,1.88,0,0,1,.57,1.48l-1.31,23.32L139,99.55a1.81,1.81,0,0,1,1.15-.1A65.62,65.62,0,0,0,154,101c28.26,0,51.27-18.75,51.27-41.78S182.72,18.34,154,18.34Z"/><circle class="b" cx="99.17" cy="17.07" r="3.18"/><circle class="b" cx="130.1" cy="179.79" r="3.18"/><circle class="b" cx="65.77" cy="173.02" r="3.18"/><circle class="b" cx="195.49" cy="111.61" r="3.18"/><path class="b" d="M159.82,179.6a8.42,8.42,0,1,1,10.73-5.16A8.43,8.43,0,0,1,159.82,179.6ZM164,167.75A4.13,4.13,0,1,0,166.5,173,4.14,4.14,0,0,0,164,167.75Z"/><path class="b" d="M90.53,42.87a2.47,2.47,0,0,1-.76-.34L59.62,23a2.08,2.08,0,0,1-.69-3,2.55,2.55,0,0,1,3.34-.42L92.42,39.07a2.08,2.08,0,0,1,.69,3A2.44,2.44,0,0,1,90.53,42.87Z"/><path class="b" d="M46.31,74.6a2.43,2.43,0,0,1-1.83-2,2.08,2.08,0,0,1,2.14-2.26L82.51,69a2.55,2.55,0,0,1,2.66,2.08A2.08,2.08,0,0,1,83,73.3L47.13,74.69A2.79,2.79,0,0,1,46.31,74.6Z"/><path class="b" d="M55.29,48.88,16.2,38.15A2.16,2.16,0,1,1,17.34,34L56.43,44.74a2.16,2.16,0,1,1-1.14,4.14Z"/><path class="b" d="M86.52,57.45,64.94,51.53a2.16,2.16,0,1,1,1.13-4.14l21.59,5.92a2.16,2.16,0,1,1-1.14,4.14Z"/><path class="b" d="M138.64,143.65H90.93a1.91,1.91,0,0,1,0-3.82h47.71a2.89,2.89,0,0,0,2.71-3.89c-3.17-8.38-12.09-15.2-19.88-15.2a1.91,1.91,0,0,1,0-3.82c9.4,0,19.7,7.76,23.45,17.67a6.71,6.71,0,0,1-6.28,9.06Z"/></svg>