<svg xmlns="http://www.w3.org/2000/svg" xmlns:xlink="http://www.w3.org/1999/xlink" viewBox="0 0 220 208"><defs><style>.a{fill:none;}.b{fill:#00b964;}.c{fill:#78dda3;}.d{fill:#fff;}.e{clip-path:url(#a);}</style><clipPath id="a"><path class="a" d="M171.83,50.3a3.24,3.24,0,0,0-2.43-.94,135.66,135.66,0,0,0-52.26,13.13c-48.75,23.46-68,69.74-68.23,70.34a3.21,3.21,0,0,0,.71,3.46L85.83,172.5a3.18,3.18,0,0,0,3.47.7c.61-.25,46.65-19.7,70.17-68.38a136,136,0,0,0,13.28-52.08A3.18,3.18,0,0,0,171.83,50.3Z"/></clipPath></defs><title>HelpCenter_Icons_expanded</title><circle class="b" cx="110" cy="108.67" r="97.56"/><path class="c" d="M103.08,181l-3.85,3.85L95.38,181a2,2,0,1,0-2.88,2.87l3.86,3.85-3.86,3.85a2,2,0,0,0,2.88,2.88l3.85-3.85,3.85,3.85a2,2,0,0,0,2.88-2.88l-3.86-3.85,3.86-3.85a2,2,0,1,0-2.88-2.87Z"/><circle class="c" cx="173.26" cy="136.47" r="3.01"/><circle class="c" cx="31.47" cy="131.47" r="3.01"/><path class="c" d="M195.61,131.43A8,8,0,1,1,200,121,8,8,0,0,1,195.61,131.43Zm-4.46-11a3.91,3.91,0,1,0,5.09,2.15A3.92,3.92,0,0,0,191.15,120.42Z"/><path class="c" d="M110,54.79a2,2,0,0,1-2-2V30.3a2,2,0,1,1,4.06,0V52.76A2,2,0,0,1,110,54.79Z"/><path class="c" d="M110,24a2,2,0,0,1-2-2V3.8a2,2,0,1,1,4.06,0V22A2,2,0,0,1,110,24Z"/><path class="c" d="M80.06,57.22a2,2,0,0,1-1.77-1L54.77,15.47a2,2,0,0,1,3.52-2L81.81,54.17A2,2,0,0,1,81.07,57,2.07,2.07,0,0,1,80.06,57.22Z"/><path class="c" d="M31.67,107.18H4a2,2,0,1,1,0-4.07H31.67a2,2,0,0,1,0,4.07Z"/><path class="c" d="M40.3,68.86a2.07,2.07,0,0,1-1-.27L15.92,55.09a2,2,0,1,1,2-3.52l23.37,13.5a2,2,0,0,1-1,3.79Z"/><path class="c" d="M145.53,47.23a2,2,0,0,1-1-.28,2,2,0,0,1-.74-2.77l17.93-30.75a2,2,0,0,1,3.52,2L147.3,46.21A2,2,0,0,1,145.53,47.23Z"/><path class="c" d="M216,107.18H165.71a2,2,0,0,1,0-4.07H216a2,2,0,1,1,0,4.07Z"/><path class="c" d="M179.7,68.86a2,2,0,0,1-1-3.79l23.37-13.5a2,2,0,1,1,2,3.52l-23.36,13.5A2.08,2.08,0,0,1,179.7,68.86Z"/><path class="c" d="M170.71,172.58a2,2,0,0,1-1.43-.6L163,165.74a2,2,0,0,1-.6-1.43,2,2,0,0,1,.6-1.44l6.24-6.24a2,2,0,0,1,2.87,0l6.23,6.24a2,2,0,0,1,0,2.87L172.15,172A2,2,0,0,1,170.71,172.58Zm-3.36-8.27,3.36,3.36,3.36-3.36-3.36-3.37Z"/><path class="c" d="M61.36,121.51h0a5,5,0,0,1-3.54-1.46l-21.94-22A5,5,0,0,1,35.09,92,56,56,0,0,1,105.73,68.9,5,5,0,0,1,107.32,77L64.9,120A5,5,0,0,1,61.36,121.51Zm22-53.63a52.35,52.35,0,0,0-45.19,26,1.39,1.39,0,0,0,.21,1.69l22,21.94a1.39,1.39,0,0,0,1,.41h0a1.41,1.41,0,0,0,1-.42l42.41-43a1.37,1.37,0,0,0,.38-1.24,1.4,1.4,0,0,0-.82-1A52.75,52.75,0,0,0,83.39,67.88Z"/><path class="c" d="M127.55,187.72a4.94,4.94,0,0,1-3.54-1.47l-22.14-22.13a5,5,0,0,1-1.46-3.55A4.9,4.9,0,0,1,101.9,157l43-42.58a5.08,5.08,0,0,1,4.45-1.36A5,5,0,0,1,153,116a55.94,55.94,0,0,1-22.95,71A5,5,0,0,1,127.55,187.72Zm20.91-71.11a1.39,1.39,0,0,0-1,.4l-43,42.58a1.36,1.36,0,0,0-.42,1,1.39,1.39,0,0,0,.41,1l22.13,22.14a1.39,1.39,0,0,0,1.69.21,52.36,52.36,0,0,0,21.48-66.47,1.39,1.39,0,0,0-1-.81Z"/><path class="d" d="M48.82,132.92a3.22,3.22,0,0,0,.71,3.46l36.21,36.2a3.18,3.18,0,0,0,3.47.7c.61-.24,46.65-19.7,70.17-68.37L117.05,62.58C68.3,86,49.07,132.31,48.82,132.92Z"/><path class="d" d="M171.74,50.38a3.25,3.25,0,0,0-2.44-.93,135.48,135.48,0,0,0-52.25,13.13l42.33,42.33a136,136,0,0,0,13.28-52.09A3.19,3.19,0,0,0,171.74,50.38Z"/><path class="b" d="M110.63,127.48a16,16,0,0,1-11.32-27.31h0a16,16,0,1,1,11.32,27.31Z"/><path class="c" d="M110.63,129.28a17.8,17.8,0,1,1,0-35.6h0a17.8,17.8,0,1,1,0,35.6Zm0-32a14.2,14.2,0,0,0-10,24.23,14.57,14.57,0,0,0,20.08,0,14.2,14.2,0,0,0-10-24.23Z"/><path class="c" d="M40.72,191.41c-2.42,0-4.33-.12-5.21-.18a5,5,0,0,1-4.62-4.63c-.34-4.48-1-19.6,5.2-25.76A17.81,17.81,0,1,1,61.27,186C56.82,190.48,47.64,191.41,40.72,191.41Zm8-32.17a14.08,14.08,0,0,0-10,4.15c-4,4-4.76,14.88-4.16,23a1.38,1.38,0,0,0,1.29,1.28c.84.06,2.65.18,4.94.18,8.82,0,15.21-1.54,18-4.33a14.19,14.19,0,0,0-10-24.23Z"/><g class="e"><path class="c" d="M162,103.52a1.8,1.8,0,0,1-1.27-.53L118.43,60.66A1.81,1.81,0,0,1,121,58.11l42.33,42.33a1.81,1.81,0,0,1-1.28,3.08Z"/></g><path class="c" d="M46.84,179.57c-.89,0-1.58,0-1.91-.06a2.9,2.9,0,0,1-2.7-2.71c-.17-2.16-.29-7.48,2.16-9.93a7.59,7.59,0,0,1,10.47,0,7.42,7.42,0,0,1,0,10.48C53.38,178.83,50.68,179.57,46.84,179.57Zm-1.05-3.63,1.05,0c3.17,0,4.9-.6,5.47-1.17a3.81,3.81,0,0,0,0-5.36,3.9,3.9,0,0,0-5.37,0C46,170.36,45.67,173.3,45.79,175.94Z"/><path class="c" d="M135.6,64.18a1.81,1.81,0,0,1-.64-3.5C148,55.78,155.11,56,155.4,56a1.81,1.81,0,0,1,1.74,1.87,1.87,1.87,0,0,1-1.87,1.75c-.06,0-6.74-.16-19,4.45A1.76,1.76,0,0,1,135.6,64.18Z"/><path class="c" d="M62.76,127.73a1.86,1.86,0,0,1-.79-.18,1.8,1.8,0,0,1-.84-2.41c.6-1.24,15.06-30.65,45.76-50.1,2.58-1.64,5.06-3.13,7.44-4.49a1.81,1.81,0,1,1,1.8,3.13c-2.34,1.34-4.78,2.81-7.3,4.41C79,97,64.53,126.41,64.39,126.71A1.81,1.81,0,0,1,62.76,127.73Z"/></svg>