<svg xmlns="http://www.w3.org/2000/svg" viewBox="0 0 220 208"><defs><style>.a{fill:#00b964;}.b{fill:#78dda3;}.c{fill:#fff;}</style></defs><title>HelpCenter_Icons_expanded</title><circle class="a" cx="110" cy="108.67" r="97.56"/><circle class="b" cx="127.55" cy="183.9" r="2.92"/><circle class="b" cx="50.18" cy="162.96" r="2.92"/><circle class="b" cx="175.25" cy="166.44" r="2.92"/><circle class="b" cx="36.8" cy="90.24" r="2.92"/><path class="b" d="M94.13,188.56l3.73-3.73a2,2,0,1,0-2.78-2.78l-3.73,3.73-3.73-3.73a2,2,0,1,0-2.78,2.78l3.73,3.73-3.73,3.73a2,2,0,0,0,0,2.78,2,2,0,0,0,2.78,0l3.73-3.73,3.73,3.73a2,2,0,0,0,2.78,0,2,2,0,0,0,0-2.78Z"/><path class="b" d="M184.56,103.49a7.73,7.73,0,1,1,7.72-7.73A7.73,7.73,0,0,1,184.56,103.49Zm0-11.51a3.79,3.79,0,1,0,3.79,3.78A3.79,3.79,0,0,0,184.56,92Z"/><path class="b" d="M99.52,64.39a2,2,0,0,1-3.82.67L85.76,37.34A2,2,0,0,1,89.47,36L99.4,63.73A1.92,1.92,0,0,1,99.52,64.39Z"/><path class="b" d="M136.15,37.26a1.93,1.93,0,0,1-.12.67L126.1,65.64a2,2,0,1,1-3.7-1.33l9.93-27.71a2,2,0,0,1,3.82.66Z"/><path class="b" d="M112.41,3.1V35.47a2,2,0,0,1-3.94,0V3.1a2,2,0,1,1,3.94,0Z"/><path class="b" d="M112.41,43.56V61.68a2,2,0,1,1-3.94,0V43.56a2,2,0,0,1,3.94,0Z"/><path class="b" d="M168.2,120.39a2,2,0,0,1-.66-3.82l27.71-9.93a2,2,0,1,1,1.32,3.7l-27.71,9.94A1.91,1.91,0,0,1,168.2,120.39Z"/><path class="b" d="M192.47,156a2.12,2.12,0,0,1-.66-.11L167,147a2,2,0,1,1,1.33-3.71l24.85,8.9a2,2,0,0,1-.66,3.82Z"/><path class="b" d="M212.39,133.28H197.12a2,2,0,1,1,0-3.93h15.27a2,2,0,1,1,0,3.93Z"/><path class="b" d="M189,133.28H170.91a2,2,0,1,1,0-3.93H189a2,2,0,0,1,0,3.93Z"/><path class="b" d="M53.6,120.39a2,2,0,0,0,.67-3.82l-27.72-9.93a2,2,0,1,0-1.32,3.7l27.71,9.94A1.91,1.91,0,0,0,53.6,120.39Z"/><path class="b" d="M28.86,156a2.24,2.24,0,0,0,.67-.11L54.85,147a2,2,0,0,0-1.33-3.71l-25.32,8.9a2,2,0,0,0,.66,3.82Z"/><path class="b" d="M7.61,133.28H24.68a2,2,0,1,0,0-3.93H7.61a2,2,0,1,0,0,3.93Z"/><path class="b" d="M32.77,133.28H50.89a2,2,0,1,0,0-3.93H32.77a2,2,0,0,0,0,3.93Z"/><path class="b" d="M152,95.12A20.71,20.71,0,0,1,145.09,94a1.75,1.75,0,0,1,1.17-3.3,18.45,18.45,0,0,0,14.21-1,7.51,7.51,0,0,0,2.55-1.9c-.86-.46-3.07-.89-6.57-1.28a20.26,20.26,0,0,1-2-.29,1.75,1.75,0,0,1,.1-3.41c4-.78,13.44-3.27,14.48-9.69.15-.93,0-1.28-.1-1.38-.22-.32-1-.44-1.38-.49a14.68,14.68,0,0,0-5,.23,2,2,0,0,1-2.38-1,2.13,2.13,0,0,1,.59-2.66,15,15,0,0,0,5.85-11.8,14.58,14.58,0,0,0-.59-4.19,2.29,2.29,0,0,0-.43-.86c0,.08-.22.22-.46.51-2,2.41-4,5-6.21,7.81-6.19,7.92-13.21,16.89-22.54,25.9a1.75,1.75,0,1,1-2.44-2.51C143.06,73.74,150,64.87,156.12,57c2.18-2.79,4.25-5.44,6.26-7.88,1.48-1.8,2.93-1.93,3.87-1.75a4.42,4.42,0,0,1,3.08,3.35,18,18,0,0,1,.73,5.19,18.4,18.4,0,0,1-4.21,11.64,15.06,15.06,0,0,1,2.17.16,5.28,5.28,0,0,1,3.69,1.89,5.14,5.14,0,0,1,.72,4c-.84,5.22-5.14,8.4-9.67,10.32,2.3.64,4,1.71,3.93,3.7-.05,1.42-1.11,2.87-3.05,4.18A21.53,21.53,0,0,1,152,95.12Z"/><path class="b" d="M69.54,95.12A21.55,21.55,0,0,1,57.9,91.83c-1.93-1.31-3-2.76-3-4.18-.08-2,1.63-3.06,3.92-3.7C54.25,82,50,78.85,49.12,73.64a5.17,5.17,0,0,1,.71-4,5.32,5.32,0,0,1,3.69-1.89,15.28,15.28,0,0,1,2.17-.16,18.46,18.46,0,0,1-3.48-16.83,4.43,4.43,0,0,1,3.09-3.35c.93-.18,2.38,0,3.86,1.75,2,2.43,4.07,5.08,6.25,7.87,6.13,7.83,13.07,16.71,22.24,25.56a1.75,1.75,0,1,1-2.44,2.51c-9.34-9-16.36-18-22.55-25.92-2.16-2.76-4.21-5.38-6.2-7.79a2,2,0,0,0-.58-.54c.08.06-.15.36-.3.89A14.24,14.24,0,0,0,55,55.93a14.94,14.94,0,0,0,5.85,11.8,2.14,2.14,0,0,1,.59,2.66,2,2,0,0,1-2.38,1,14.71,14.71,0,0,0-5-.23c-.35.05-1.16.17-1.39.49a2.1,2.1,0,0,0-.09,1.38C53.61,79.5,63,82,67,82.77a1.75,1.75,0,0,1,.11,3.41,20.14,20.14,0,0,1-2.06.29c-3.51.39-5.72.82-6.58,1.29a8,8,0,0,0,2.56,1.89,18.46,18.46,0,0,0,14.21,1,1.73,1.73,0,0,1,2.23,1.06A1.75,1.75,0,0,1,76.45,94,20.71,20.71,0,0,1,69.54,95.12Z"/><path class="c" d="M159.59,95.22,110.73,68.57a2.24,2.24,0,0,0-2.13,0L59.74,95.22a2.22,2.22,0,0,0-1.16,2v8.88a2.22,2.22,0,0,0,2.23,2.22h97.72a2.22,2.22,0,0,0,2.22-2.22V97.17A2.22,2.22,0,0,0,159.59,95.22Zm-49.92,2a6.67,6.67,0,1,1,6.66-6.67A6.67,6.67,0,0,1,109.67,97.17Z"/><rect class="c" x="118.55" y="112.71" width="8.88" height="42.2"/><rect class="c" x="65.25" y="112.71" width="8.88" height="42.2"/><rect class="c" x="91.9" y="112.71" width="8.88" height="42.2"/><rect class="c" x="145.2" y="112.71" width="8.88" height="42.2"/><path class="c" d="M158.53,159.35H60.81a2.23,2.23,0,0,0-2.23,2.23v6.66a2.22,2.22,0,0,0,2.23,2.22h97.72a2.22,2.22,0,0,0,2.22-2.22v-6.66A2.23,2.23,0,0,0,158.53,159.35Z"/><path class="b" d="M155.19,104.62H63.27a1.75,1.75,0,0,1,0-3.5h91.92a1.75,1.75,0,0,1,0,3.5Z"/><path class="b" d="M155.19,167.45H63.27a1.75,1.75,0,0,1,0-3.5h91.92a1.75,1.75,0,0,1,0,3.5Z"/></svg>