<svg xmlns="http://www.w3.org/2000/svg" viewBox="0 0 220 208"><defs><style>.a{fill:#00b964;}.b{fill:#78dda3;}.c{fill:#fff;}</style></defs><title>HelpCenter_Icons_expanded</title><circle class="a" cx="110" cy="108.67" r="97.56"/><path class="b" d="M168.52,172.79a7.66,7.66,0,1,1,7.66-7.66A7.66,7.66,0,0,1,168.52,172.79Zm0-11.41a3.76,3.76,0,1,0,3.76,3.75A3.76,3.76,0,0,0,168.52,161.38Z"/><path class="b" d="M111.37,48.67V33.61a1.95,1.95,0,0,0-3.9,0v14.9C107.6,50.82,111.35,51,111.37,48.67Z"/><path class="b" d="M109.42,26.23a2,2,0,0,1-2-1.95V4a2,2,0,0,1,3.9,0V24.28A2,2,0,0,1,109.42,26.23Z"/><path class="b" d="M211.55,115.45H177.22a2,2,0,1,1,0-3.9h34.33a1.95,1.95,0,0,1,0,3.9Z"/><path class="b" d="M183.1,72.91a2,2,0,0,1-1-3.64L201.57,58a2,2,0,0,1,2,3.38L184.07,72.65A1.91,1.91,0,0,1,183.1,72.91Z"/><path class="b" d="M145.2,53.47a2,2,0,0,1-1-.26,2,2,0,0,1-.72-2.67L162.91,17a2,2,0,1,1,3.38,1.95l-19.4,33.59A1.94,1.94,0,0,1,145.2,53.47Z"/><path class="b" d="M41.62,115.45H8.45a2,2,0,1,1,0-3.9H41.62a2,2,0,1,1,0,3.9Z"/><path class="b" d="M35.74,72.91a1.91,1.91,0,0,1-1-.26L15.31,61.42a2,2,0,0,1,2-3.38L36.72,69.27a1.95,1.95,0,0,1-1,3.64Z"/><path class="b" d="M73.64,53.47a1.94,1.94,0,0,1-1.69-1L52.55,18.9A2,2,0,1,1,55.93,17l19.4,33.59a2,2,0,0,1-.72,2.67A2,2,0,0,1,73.64,53.47Z"/><path class="c" d="M172.61,76.54c-18.35,0-44.82-9.47-61.56-22a2.25,2.25,0,0,0-2.7,0c-16.74,12.55-43.2,22-61.56,22a2.24,2.24,0,0,0-2.25,2.24c0,47.31,25.23,88.7,64.28,105.43a2.23,2.23,0,0,0,.88.18,2.32,2.32,0,0,0,.89-.18c39-16.73,64.27-58.12,64.27-105.43A2.24,2.24,0,0,0,172.61,76.54ZM109.7,179.69V119.23H55.8A122,122,0,0,1,49.05,81c18.57-.71,43.87-9.82,60.65-21.89v60.13h53.9C154.06,146.51,135,168.55,109.7,179.69Z"/><path class="b" d="M146,86.6h-3.47V82.21a5.79,5.79,0,1,0-11.58,0V86.6h-3.47V82.21a9.26,9.26,0,1,1,18.52,0Z"/><path class="b" d="M148,114.05H125.46a4.24,4.24,0,0,1-4.24-4.24V92.25A4.25,4.25,0,0,1,125.46,88H148a4.25,4.25,0,0,1,4.24,4.25v17.56A4.24,4.24,0,0,1,148,114.05ZM125.46,91.47a.78.78,0,0,0-.77.78v17.56a.78.78,0,0,0,.77.77H148a.78.78,0,0,0,.78-.77V92.25a.78.78,0,0,0-.78-.78Z"/><rect class="b" x="135.02" y="102.91" width="3.47" height="3.76"/><path class="b" d="M136.75,104.64a5.5,5.5,0,1,1,5.5-5.5A5.49,5.49,0,0,1,136.75,104.64Zm0-7.52a2,2,0,1,0,2,2A2,2,0,0,0,136.75,97.12Z"/><path class="b" d="M90.2,158.31a.71.71,0,0,1,.23-.5l4.45-4.07a.71.71,0,0,1,1,0l5.43,5.93a.71.71,0,0,1,0,1l-4.44,4.07a.71.71,0,0,1-1,0l-1.36-1.49a.71.71,0,0,1,0-1l1.7-1.56-1.76-1.91-1.7,1.55a.7.7,0,0,1-1,0l-1.36-1.48A.71.71,0,0,1,90.2,158.31Z"/><path class="b" d="M103.54,163.21c.43-.4.87-1.48.47-1.91l-16.3-17.81a5.53,5.53,0,0,0,1.18-3.73,7.11,7.11,0,1,0-7.42,6.78,5.3,5.3,0,0,0,3.7-.89l16.3,17.8C101.87,163.88,103.1,163.6,103.54,163.21ZM78.2,139.28a3.59,3.59,0,0,1,7.17.32,3.56,3.56,0,0,1-1.15,2.47h0s0,0,0,0a3.55,3.55,0,0,1-2.56.92A3.59,3.59,0,0,1,78.2,139.28Z"/><circle class="b" cx="178.6" cy="134.71" r="2.89"/><circle class="b" cx="136.51" cy="184.94" r="2.89"/><circle class="b" cx="69.02" cy="182.05" r="2.89"/><path class="b" d="M57,152.77H51.72v-5.23a2,2,0,0,0-3.91,0v5.23H42.58a1.95,1.95,0,0,0,0,3.9h5.23v5.23a2,2,0,0,0,3.91,0v-5.23H57a1.95,1.95,0,1,0,0-3.9Z"/></svg>